Coordinates
version=1
nRows=65
nColumns=12
inDegrees=yes

Units are S.I. units (second, meters, Newtons, ...)
Angles are in degrees

endheader
time	SC_y	SC_z	SC_x	AC_y	AC_z	AC_x	GH_y	GH_z	GH_yy	EL_x	PS_y
       0.0              -28.53          -3.21          77.69          37.77         -16.34          11.15         -130.8         -15.99         -61.85          107.4          28.44
   0.02383              -28.53         -3.205          77.69          37.77         -16.34          11.15         -130.8         -15.97         -61.86          107.4          28.45
   0.04765              -28.53           -3.2           77.7          37.78         -16.33          11.15         -130.8         -15.96         -61.87          107.4          28.46
   0.07148              -28.53         -3.195           77.7          37.78         -16.33          11.15         -130.8         -15.94         -61.88          107.4          28.47
    0.0953              -28.53         -3.189           77.7          37.78         -16.33          11.15         -130.8         -15.92         -61.89          107.4          28.48
    0.1191              -28.53         -3.183           77.7          37.78         -16.33          11.15         -130.8          -15.9          -61.9          107.4          28.49
     0.143              -28.53         -3.177           77.7          37.78         -16.33          11.15         -130.8         -15.88         -61.91          107.4          28.51
    0.1668              -28.53          -3.17           77.7          37.78         -16.33          11.14         -130.8         -15.86         -61.92          107.4          28.52
    0.1906              -28.53         -3.162           77.7          37.78         -16.33          11.14         -130.8         -15.84         -61.93          107.3          28.53
    0.2144              -28.53         -3.154           77.7          37.78         -16.32          11.14         -130.8         -15.81         -61.95          107.3          28.55
    0.2383              -28.53         -3.146           77.7          37.79         -16.32          11.14         -130.9         -15.78         -61.96          107.3          28.57
    0.2621              -28.53         -3.136          77.71          37.79         -16.32          11.14         -130.9         -15.76         -61.98          107.3          28.59
    0.2859              -28.53         -3.126          77.71          37.79         -16.32          11.14         -130.9         -15.72         -61.99          107.3          28.61
    0.3097              -28.53         -3.116          77.71          37.79         -16.31          11.13         -130.9         -15.69         -62.01          107.3          28.63
    0.3336              -28.53         -3.104          77.71          37.79         -16.31          11.13         -130.9         -15.65         -62.03          107.3          28.65
    0.3574              -28.53         -3.092          77.71           37.8         -16.31          11.13         -130.9         -15.61         -62.05          107.3          28.68
    0.3812              -28.54         -3.078          77.71           37.8          -16.3          11.13         -130.9         -15.57         -62.08          107.3          28.71
     0.405              -28.54         -3.063          77.72           37.8          -16.3          11.13         -130.9         -15.52          -62.1          107.3          28.74
    0.4289              -28.54         -3.047          77.72          37.81          -16.3          11.12         -130.9         -15.47         -62.13          107.3          28.77
    0.4527              -28.54         -3.029          77.72          37.81         -16.29          11.12         -131.0         -15.41         -62.16          107.3          28.81
    0.4765              -28.54         -3.009          77.72          37.81         -16.29          11.12         -131.0         -15.35          -62.2          107.3          28.85
    0.5003              -28.54         -2.988          77.73          37.82         -16.28          11.11         -131.0         -15.28         -62.23          107.2          28.89
    0.5242              -28.54         -2.964          77.73          37.82         -16.28          11.11         -131.0         -15.21         -62.27          107.2          28.94
     0.548              -28.54         -2.938          77.73          37.83         -16.27           11.1         -131.0         -15.12         -62.32          107.2          28.99
    0.5718              -28.54         -2.908          77.74          37.83         -16.26           11.1         -131.1         -15.03         -62.37          107.2          29.05
    0.5956              -28.54         -2.876          77.74          37.84         -16.25          11.09         -131.1         -14.93         -62.42          107.2          29.12
    0.6195              -28.54         -2.839          77.75          37.85         -16.24          11.09         -131.1         -14.81         -62.49          107.1          29.19
    0.6433              -28.54         -2.798          77.76          37.86         -16.23          11.08         -131.2         -14.68         -62.56          107.1          29.28
    0.6671              -28.54         -2.751          77.76          37.86         -16.22          11.07         -131.2         -14.53         -62.64          107.1          29.37
    0.6909              -28.54         -2.698          77.77          37.87         -16.21          11.06         -131.3         -14.36         -62.73          107.1          29.48
    0.7148              -28.54         -2.638          77.78          37.89         -16.19          11.05         -131.3         -14.17         -62.83          107.0           29.6
    0.7386              -28.54         -2.569          77.79           37.9         -16.18          11.04         -131.4         -13.95         -62.95          107.0          29.74
    0.7624              -28.55         -2.489           77.8          37.92         -16.16          11.03         -131.5          -13.7         -63.09          106.9          29.91
    0.7862              -28.55         -2.396          77.82          37.93         -16.13          11.01         -131.5          -13.4         -63.25          106.9           30.1
    0.8101              -28.55         -2.287          77.83          37.96         -16.11          10.99         -131.6         -13.05         -63.43          106.8          30.32
    0.8339              -28.55         -2.159          77.85          37.98         -16.07          10.97         -131.8         -12.65         -63.65          106.7          30.58
    0.8577              -28.55         -2.007          77.87          38.01         -16.04          10.94         -131.9         -12.16         -63.91          106.6          30.89
    0.8815              -28.56         -1.824           77.9          38.05         -15.99          10.91         -132.1         -11.58         -64.23          106.5          31.26
    0.9054              -28.56         -1.603          77.93          38.09         -15.93          10.87         -132.3         -10.88          -64.6          106.4          31.71
    0.9292              -28.57         -1.333          77.97          38.14         -15.87          10.82         -132.5         -10.02         -65.07          106.2          32.26
     0.953              -28.57           -1.0          78.02          38.21         -15.78          10.77         -132.8         -8.965         -65.64          106.0          32.94
    0.9768              -28.58        -0.5851          78.09          38.29         -15.68          10.69         -133.2         -7.645         -66.35          105.8          33.79
     1.001              -28.59       -0.06196          78.17           38.4         -15.55           10.6         -133.7         -5.982         -67.24          105.4          34.85
     1.024               -28.6          0.603          78.26          38.53         -15.38          10.49         -134.3         -3.868         -68.38          105.0          36.21
     1.048              -28.61          1.454          78.39           38.7         -15.17          10.34         -135.0         -1.162         -69.84          104.5          37.94
     1.072              -28.63          2.546          78.56          38.91         -14.89          10.15         -136.0           2.31         -71.71          103.8          40.17
     1.096              -28.66          3.942          78.76          39.19         -14.54          9.905         -137.3          6.745          -74.1          102.9          43.01
      1.12              -28.69          5.696          79.03          39.53          -14.1            9.6         -138.9          12.32          -77.1          101.9          46.59
     1.144              -28.72          7.834          79.35          39.96         -13.56          9.227         -140.9          19.12         -80.76          100.5          50.94
     1.167              -28.77          10.31          79.72          40.45         -12.94          8.796         -143.1          26.99         -85.01          98.99          55.99
     1.191              -28.81          12.99          80.12          40.98         -12.27          8.328         -145.6          35.52          -89.6          97.33          61.46
     1.215              -28.86          15.68          80.52          41.51         -11.59          7.861         -148.0          44.05         -94.19          95.66          66.93
     1.239               -28.9          18.16          80.89           42.0         -10.97          7.429         -150.3          51.93         -98.44          94.12          71.98
     1.263              -28.94          20.29          81.21          42.42         -10.43          7.056         -152.2          58.73         -102.1           92.8          76.33
     1.287              -28.97          22.05          81.47          42.77         -9.993          6.751         -153.8           64.3         -105.1          91.71          79.91
      1.31              -28.99          23.44          81.68          43.04         -9.643          6.508         -155.1          68.74         -107.5          90.84          82.75
     1.334              -29.01          24.54          81.84          43.26         -9.368          6.317         -156.1          72.21         -109.4          90.17          84.98
     1.358              -29.03          25.39          81.97          43.43         -9.154          6.169         -156.9          74.92         -110.8          89.64          86.71
     1.382              -29.04          26.05          82.07          43.56         -8.987          6.053         -157.5          77.03         -112.0          89.23          88.07
     1.406              -29.05          26.58          82.15          43.66         -8.856          5.962         -158.0          78.69         -112.9           88.9          89.13
      1.43              -29.06          26.99          82.21          43.74         -8.752           5.89         -158.3          80.01         -113.6          88.64          89.98
     1.453              -29.06          27.32          82.26          43.81         -8.668          5.832         -158.6          81.07         -114.1          88.44          90.66
     1.477              -29.07          27.59           82.3          43.86           -8.6          5.785         -158.9          81.93         -114.6          88.27          91.21
     1.501              -29.07          27.81          82.33          43.91         -8.545          5.746         -159.1          82.63         -115.0          88.13          91.66
     1.525              -29.07           28.0          82.36          43.94         -8.499          5.714         -159.3          83.21         -115.3          88.02          92.03
